Format : AVI
Format/Info : Audio Video Interleave
File size : 1.53 GiB
Duration : 2h 13mn
Overall bit rate : 1 644 Kbps
Writing application : VirtualDubMod 1.5.10.2 (build 2540/release)
Writing library : VirtualDubMod build 2540/release

Video
ID : 0
Format : MPEG-4 Visual
Format profile : Advanced Simple@L5
Format settings, BVOP : 2
Format settings, QPel : No
Format settings, GMC : No warppoints
Format settings, Matrix : Default (H.263)
Muxing mode : Packed bitstream
Codec ID : XVID
Codec ID/Hint : XviD
Duration : 2h 13mn
Bit rate : 1 507 Kbps
Width : 640 pixels
Height : 272 pixels
Display aspect ratio : 2.35:1
Frame rate : 25.000 fps
Color space : YUV
Chroma subsampling : 4:2:0
Bit depth : 8 bits
Scan type : Progressive
Compression mode : Lossy
Bits/(Pixel*Frame) : 0.346
Stream size : 1.40 GiB (92%)
Writing library : XviD 64

Audio
ID : 1
Format : MPEG Audio
Format version : Version 1
Format profile : Layer 3
Mode : Joint stereo
Mode extension : MS Stereo
Codec ID : 55
Codec ID/Hint : MP3
Duration : 2h 13mn
Bit rate mode : Constant
Bit rate : 128 Kbps
Channel(s) : 2 channels
Sampling rate : 44.1 KHz
Compression mode : Lossy
Delay relative to video : 5ms
Stream size : 122 MiB (8%)
Alignment : Split accross interleaves
Interleave, duration : 40 ms (1.00 video frame)
Interleave, preload duration : 500 ms






 
http://www.imdb.com/title/tt1392170/






Ratings: 7.9/10 from 47,947 users Metascore: 67/100 
Reviews: 622 user | 267 critic | 44 from Metacritic.com

Set in a future where the Capitol selects a boy and girl from the twelve districts to fight to the death on live television, Katniss Everdeen volunteers to take her younger sister's place for the latest match.

Director:
Gary Ross
Writers:
Gary Ross (screenplay), Suzanne Collins (screenplay), and 2 more credits ┬╗
Stars:
Jennifer Lawrence, Josh Hutcherson and Liam Hemsworth 









Source Used



Γü»Video ......... Az.ehezok.viadala.2012.CAM.SUBBED.XviD-BEOWULF ...................Thanks

Audio....................ILLUMINATI.....................................................Thanks




Video is way better imo than previous source ....However has what i believe to be hungarian hardcoded subs throughout but hey choices choices


Added saturation,lowered hue,changed rgb,contrast.levels,sharpened and denoise


Sample included check it out




Enjoy